<svg width="14" height="14" viewBox="0 0 14 14" fill="none" xmlns="http://www.w3.org/2000/svg">
<path d="M9.51562 8C9.38302 8.00001 9.25584 8.0527 9.16208 8.14646C9.06831 8.24023 9.01564 8.3674 9.01562 8.5V13.5C9.01564 13.6326 9.06831 13.7598 9.16208 13.8535C9.25584 13.9473 9.38302 14 9.51562 14H13.5C13.6326 14 13.7598 13.9473 13.8535 13.8535C13.9473 13.7598 14 13.6326 14 13.5V8.5C14 8.3674 13.9473 8.24023 13.8535 8.14646C13.7598 8.0527 13.6326 8.00001 13.5 8H9.51562ZM10.0156 9H13V13H10.0156V9ZM0.515625 8C0.383021 8.00001 0.255844 8.0527 0.162079 8.14646C0.0683135 8.24023 0.0156383 8.3674 0.015625 8.5V13.5C0.0156383 13.6326 0.0683135 13.7598 0.162079 13.8535C0.255844 13.9473 0.383021 14 0.515625 14H4.5C4.6326 14 4.75978 13.9473 4.85355 13.8535C4.94731 13.7598 4.99999 13.6326 5 13.5V8.5C4.99999 8.3674 4.94731 8.24023 4.85355 8.14646C4.75978 8.0527 4.6326 8.00001 4.5 8H0.515625ZM1.01562 9H4V13H1.01562V9ZM9.51562 0C9.38302 1.32584e-05 9.25584 0.0526962 9.16208 0.146461C9.06831 0.240227 9.01564 0.367396 9.01562 0.5V5.5C9.01564 5.6326 9.06831 5.75977 9.16208 5.85354C9.25584 5.9473 9.38302 5.99999 9.51562 6H13.5C13.6326 5.99999 13.7598 5.9473 13.8535 5.85354C13.9473 5.75977 14 5.6326 14 5.5V0.5C14 0.367396 13.9473 0.240227 13.8535 0.146461C13.7598 0.0526962 13.6326 1.32584e-05 13.5 0H9.51562ZM10.0156 1H13V5H10.0156V1ZM0.515625 0C0.383021 1.32584e-05 0.255844 0.0526962 0.162079 0.146461C0.0683135 0.240227 0.0156383 0.367396 0.015625 0.5V5.5C0.0156383 5.6326 0.0683135 5.75977 0.162079 5.85354C0.255844 5.9473 0.383021 5.99999 0.515625 6H4.5C4.6326 5.99999 4.75978 5.9473 4.85355 5.85354C4.94731 5.75977 4.99999 5.6326 5 5.5V0.5C4.99999 0.367396 4.94731 0.240227 4.85355 0.146461C4.75978 0.0526962 4.6326 1.32584e-05 4.5 0H0.515625ZM1.01562 1H4V5H1.01562V1Z" fill="white"/>
</svg>
