<svg width="14" height="13" viewBox="0 0 14 13" fill="none" xmlns="http://www.w3.org/2000/svg">
<path d="M0.515625 0C0.239485 2.8e-05 0.015645 0.223869 0.015625 0.5V12.5C0.015645 12.7761 0.239485 13 0.515625 13H3.49999C3.77612 13 3.99996 12.7761 3.99999 12.5V0.5C3.99996 0.223869 3.77612 2.8e-05 3.49999 0H0.515625ZM1.01562 1H2.99999V3H1.01562V1ZM1.01562 4H2.99999V6H1.01562V4ZM1.01562 7H2.99999V9H1.01562V7ZM1.01562 10H2.99999V12H1.01562V10ZM13 7.00001H14V8.00001H13V7.00001ZM11 7.00001H12V8.00001H11V7.00001ZM8.99999 7.00001H9.99999V8.00001H8.99999V7.00001ZM6.99999 7.00001H7.99999V8.00001H6.99999V7.00001ZM4.99999 7.00001H5.99999V8.00001H4.99999V7.00001ZM13 4.00001H14V5.00001H13V4.00001ZM11 4.00001H12V5.00001H11V4.00001ZM8.99999 4.00001H9.99999V5.00001H8.99999V4.00001ZM6.99999 4.00001H7.99999V5.00001H6.99999V4.00001ZM4.99999 4.00001H5.99999V5.00001H4.99999V4.00001ZM13 1.00001H14V2.00001H13V1.00001ZM11 1.00001H12V2.00001H11V1.00001ZM8.99999 1.00001H9.99999V2.00001H8.99999V1.00001ZM6.99999 1.00001H7.99999V2.00001H6.99999V1.00001ZM4.99999 1.00001H5.99999V2.00001H4.99999V1.00001Z" fill="white"/>
</svg>
