<svg width="14" height="13" viewBox="0 0 14 13" fill="none" xmlns="http://www.w3.org/2000/svg">
<path d="M13 4H14V5H13V4ZM13 1H14V2H13V1ZM5 4H6V5H5V4ZM5 7H6V8H5V7ZM5 1H6V2H5V1Z" fill="white"/>
<path d="M8.51562 0C8.23949 2.8e-05 8.01565 0.223869 8.01562 0.5V6.5C8.01565 6.77613 8.23949 6.99997 8.51562 7H11.5C11.7761 6.99997 12 6.77613 12 6.5V0.5C12 0.223869 11.7761 2.8e-05 11.5 0H8.51562ZM9.01562 1H11V3H9.01562V1ZM9.01562 4H11V6H9.01562V4ZM0.515625 0C0.239494 2.8e-05 0.015653 0.223869 0.015625 0.5V12.5C0.015653 12.7761 0.239494 13 0.515625 13H3.5C3.77613 13 3.99997 12.7761 4 12.5V0.5C3.99997 0.223869 3.77613 2.8e-05 3.5 0H0.515625ZM1.01562 1H3V3H1.01562V1ZM1.01562 4H3V6H1.01562V4ZM1.01562 7H3V9H1.01562V7ZM1.01562 10H3V12H1.01562V10Z" fill="white"/>
</svg>
